<svg xmlns="http://www.w3.org/2000/svg" viewBox="0 0 420 420">
  <rect width="420" height="420" fill="#ffffff"/>
  <g stroke="#e5e7eb" stroke-width="2">
    <circle cx="210" cy="210" r="180" fill="none"/>
    <circle cx="210" cy="210" r="120" fill="none"/>
    <circle cx="210" cy="210" r="60" fill="none"/>
  </g>
  <g stroke-width="3" stroke-linecap="round">
    <line x1="210" y1="210" x2="210" y2="30" stroke="#c7cdd8"/>
    <line x1="210" y1="210" x2="310" y2="50" stroke="#c7cdd8"/>
    <line x1="210" y1="210" x2="360" y2="120" stroke="#c7cdd8"/>
    <line x1="210" y1="210" x2="380" y2="210" stroke="#c7cdd8"/>
    <line x1="210" y1="210" x2="360" y2="300" stroke="#c7cdd8"/>
    <line x1="210" y1="210" x2="300" y2="360" stroke="#c7cdd8"/>
    <line x1="210" y1="210" x2="210" y2="390" stroke="#c7cdd8"/>
    <line x1="210" y1="210" x2="120" y2="360" stroke="#c7cdd8"/>
    <line x1="210" y1="210" x2="60" y2="300" stroke="#c7cdd8"/>
    <line x1="210" y1="210" x2="40" y2="210" stroke="#c7cdd8"/>
    <line x1="210" y1="210" x2="60" y2="120" stroke="#c7cdd8"/>
    <line x1="210" y1="210" x2="120" y2="60" stroke="#c7cdd8"/>
  </g>
  <g stroke-width="4" stroke-linecap="round">
    <line x1="210" y1="210" x2="210" y2="80" stroke="#2563eb"/>
    <line x1="210" y1="210" x2="300" y2="80" stroke="#2563eb"/>
    <line x1="210" y1="210" x2="340" y2="200" stroke="#ef4444"/>
    <line x1="210" y1="210" x2="310" y2="300" stroke="#ef4444"/>
    <line x1="210" y1="210" x2="220" y2="330" stroke="#2563eb"/>
    <line x1="210" y1="210" x2="120" y2="320" stroke="#2563eb"/>
    <line x1="210" y1="210" x2="80" y2="240" stroke="#ef4444"/>
    <line x1="210" y1="210" x2="90" y2="120" stroke="#ef4444"/>
  </g>
  <circle cx="210" cy="210" r="10" fill="#111827"/>
  <text x="20" y="400" font-family="IBM Plex Sans, Arial, sans-serif" font-size="13" fill="#6b7280">
    (b) Forest view where each radial line is one tree
  </text>
</svg>
